<svg width="50" height="50" viewBox="0 0 50 50" fill="none" xmlns="http://www.w3.org/2000/svg">
<path d="M25 50C11.2129 50 0 38.7871 0 25C0 11.2129 11.2129 0 25 0C38.7871 0 50 11.2129 50 25C50 38.7871 38.7871 50 25 50Z" fill="#00D970"/>
<mask id="mask0_989_14227" style="mask-type:alpha" maskUnits="userSpaceOnUse" x="13" y="13" width="24" height="24">
<rect x="13" y="13" width="24" height="24" fill="#D9D9D9"/>
</mask>
<g mask="url(#mask0_989_14227)">
<path d="M25.0008 32.3249C24.6327 32.3249 24.3198 32.196 24.0622 31.9384C23.8046 31.6808 23.6758 31.3679 23.6758 30.9998V26.3249H19.0008C18.6327 26.3249 18.3198 26.196 18.0622 25.9384C17.8046 25.6808 17.6758 25.3679 17.6758 24.9998C17.6758 24.6317 17.8046 24.3188 18.0622 24.0612C18.3198 23.8036 18.6327 23.6748 19.0008 23.6748H23.6758V18.9998C23.6758 18.6317 23.8046 18.3188 24.0622 18.0612C24.3198 17.8036 24.6327 17.6748 25.0008 17.6748C25.3689 17.6748 25.6818 17.8036 25.9394 18.0612C26.197 18.3188 26.3258 18.6317 26.3258 18.9998V23.6748H31.0008C31.3689 23.6748 31.6818 23.8036 31.9394 24.0612C32.197 24.3188 32.3258 24.6317 32.3258 24.9998C32.3258 25.3679 32.197 25.6808 31.9394 25.9384C31.6818 26.196 31.3689 26.3249 31.0008 26.3249H26.3258V30.9998C26.3258 31.3679 26.197 31.6808 25.9394 31.9384C25.6818 32.196 25.3689 32.3249 25.0008 32.3249Z" fill="white"/>
</g>
</svg>
