<svg width="50" height="50" viewBox="0 0 50 50" fill="none" xmlns="http://www.w3.org/2000/svg">
<path d="M25 50C11.2129 50 0 38.7871 0 25C0 11.2129 11.2129 0 25 0C38.7871 0 50 11.2129 50 25C50 38.7871 38.7871 50 25 50Z" fill="#00D970"/>
<mask id="mask0_866_1096" style="mask-type:alpha" maskUnits="userSpaceOnUse" x="13" y="13" width="24" height="24">
<rect x="13" y="13" width="24" height="24" fill="#D9D9D9"/>
</mask>
<g mask="url(#mask0_866_1096)">
<path d="M24.9998 32.3249C24.6317 32.3249 24.3188 32.196 24.0612 31.9384C23.8036 31.6808 23.6748 31.3679 23.6748 30.9998V26.3249H18.9998C18.6317 26.3249 18.3188 26.196 18.0612 25.9384C17.8036 25.6808 17.6748 25.3679 17.6748 24.9998C17.6748 24.6317 17.8036 24.3188 18.0612 24.0612C18.3188 23.8036 18.6317 23.6748 18.9998 23.6748H23.6748V18.9998C23.6748 18.6317 23.8036 18.3188 24.0612 18.0612C24.3188 17.8036 24.6317 17.6748 24.9998 17.6748C25.3679 17.6748 25.6808 17.8036 25.9384 18.0612C26.196 18.3188 26.3249 18.6317 26.3249 18.9998V23.6748H30.9998C31.3679 23.6748 31.6808 23.8036 31.9384 24.0612C32.196 24.3188 32.3249 24.6317 32.3249 24.9998C32.3249 25.3679 32.196 25.6808 31.9384 25.9384C31.6808 26.196 31.3679 26.3249 30.9998 26.3249H26.3249V30.9998C26.3249 31.3679 26.196 31.6808 25.9384 31.9384C25.6808 32.196 25.3679 32.3249 24.9998 32.3249Z" fill="white"/>
</g>
</svg>
