<svg width="24" height="24" viewBox="0 0 24 24" fill="none" xmlns="http://www.w3.org/2000/svg">
<mask id="mask0_870_3300" style="mask-type:alpha" maskUnits="userSpaceOnUse" x="0" y="0" width="24" height="24">
<rect width="24" height="24" fill="#D9D9D9"/>
</mask>
<g mask="url(#mask0_870_3300)">
<path d="M10.9192 18.685L9.75192 17.6292C7.97242 16.0126 6.40223 14.4405 5.04135 12.9129C3.68045 11.3853 3 9.79782 3 8.15039C3 6.87859 3.43205 5.81064 4.29615 4.94654C5.16025 4.08244 6.2282 3.65039 7.5 3.65039C8.22948 3.65039 8.9891 3.83468 9.77885 4.20327C10.5686 4.57187 11.309 5.26706 12 6.28884C12.691 5.26706 13.4314 4.57187 14.2212 4.20327C15.0109 3.83468 15.7705 3.65039 16.5 3.65039C17.7718 3.65039 18.8398 4.08244 19.7038 4.94654C20.5679 5.81064 21 6.87859 21 8.15039C21 9.83629 20.2917 11.4568 18.875 13.0119C17.4583 14.5671 15.9077 16.1081 14.2231 17.635L13.0808 18.6658C12.7744 18.9427 12.4141 19.0844 12 19.0908C11.5859 19.0972 11.2256 18.9619 10.9192 18.685ZM11.5115 7.32732C10.9128 6.36193 10.2904 5.67443 9.64423 5.26482C8.99808 4.8552 8.28333 4.65039 7.5 4.65039C6.5 4.65039 5.66667 4.98372 5 5.65039C4.33333 6.31706 4 7.15039 4 8.15039C4 8.88886 4.20897 9.64623 4.62692 10.4225C5.04487 11.1988 5.60609 11.994 6.31058 12.8081C7.01508 13.6222 7.82469 14.4549 8.73943 15.3062C9.65418 16.1574 10.6064 17.0337 11.5962 17.935C11.7115 18.0376 11.8462 18.0889 12 18.0889C12.1538 18.0889 12.2885 18.0376 12.4038 17.935C13.3936 17.0337 14.3458 16.1574 15.2606 15.3062C16.1753 14.4549 16.9849 13.6222 17.6894 12.8081C18.3939 11.994 18.9551 11.1988 19.3731 10.4225C19.791 9.64623 20 8.88886 20 8.15039C20 7.15039 19.6667 6.31706 19 5.65039C18.3333 4.98372 17.5 4.65039 16.5 4.65039C15.7167 4.65039 15.0019 4.8552 14.3558 5.26482C13.7096 5.67443 13.0872 6.36193 12.4885 7.32732C12.4359 7.41705 12.3648 7.48436 12.275 7.52924C12.1853 7.57411 12.0936 7.59654 12 7.59654C11.9064 7.59654 11.8148 7.57411 11.725 7.52924C11.6353 7.48436 11.5641 7.41705 11.5115 7.32732Z" fill="#1C1B1F"/>
</g>
</svg>
