<svg width="16" height="16" viewBox="0 0 16 16" fill="none" xmlns="http://www.w3.org/2000/svg">
<path d="M13.5 15.1156C12.8026 15.1156 12.2115 14.8733 11.7269 14.3886C11.2423 13.904 11 13.313 11 12.6155C11 11.9181 11.2423 11.3271 11.7269 10.8425C12.2115 10.3579 12.8026 10.1155 13.5 10.1155C14.1974 10.1155 14.7885 10.3579 15.2731 10.8425C15.7577 11.3271 16 11.9181 16 12.6155C16 13.313 15.7577 13.904 15.2731 14.3886C14.7885 14.8733 14.1974 15.1156 13.5 15.1156ZM13.5 14.1155C13.9167 14.1155 14.2708 13.9697 14.5625 13.678C14.8542 13.3864 15 13.0322 15 12.6155C15 12.1989 14.8542 11.8447 14.5625 11.553C14.2708 11.2614 13.9167 11.1155 13.5 11.1155C13.0833 11.1155 12.7292 11.2614 12.4375 11.553C12.1458 11.8447 12 12.1989 12 12.6155C12 13.0322 12.1458 13.3864 12.4375 13.678C12.7292 13.9697 13.0833 14.1155 13.5 14.1155ZM7.73077 13.1156H0.5C0.358333 13.1156 0.239583 13.0676 0.14375 12.9716C0.0479167 12.8757 0 12.7567 0 12.6149C0 12.473 0.0479167 12.3543 0.14375 12.2588C0.239583 12.1633 0.358333 12.1155 0.5 12.1155H7.73077C7.87244 12.1155 7.99119 12.1635 8.08702 12.2595C8.18286 12.3555 8.23077 12.4744 8.23077 12.6162C8.23077 12.7581 8.18286 12.8768 8.08702 12.9723C7.99119 13.0678 7.87244 13.1156 7.73077 13.1156ZM2.5 5.88479C1.80257 5.88479 1.21154 5.64248 0.726925 5.15787C0.242308 4.67325 0 4.08222 0 3.38479C0 2.68734 0.242308 2.09631 0.726925 1.61169C1.21154 1.12707 1.80257 0.884766 2.5 0.884766C3.19743 0.884766 3.78846 1.12707 4.27308 1.61169C4.75769 2.09631 5 2.68734 5 3.38479C5 4.08222 4.75769 4.67325 4.27308 5.15787C3.78846 5.64248 3.19743 5.88479 2.5 5.88479ZM2.5 4.88479C2.91667 4.88479 3.27083 4.73896 3.5625 4.44729C3.85417 4.15562 4 3.80146 4 3.38479C4 2.96812 3.85417 2.61396 3.5625 2.32229C3.27083 2.03062 2.91667 1.88479 2.5 1.88479C2.08333 1.88479 1.72917 2.03062 1.4375 2.32229C1.14583 2.61396 1 2.96812 1 3.38479C1 3.80146 1.14583 4.15562 1.4375 4.44729C1.72917 4.73896 2.08333 4.88479 2.5 4.88479ZM15.5 3.88479H8.26923C8.12756 3.88479 8.00881 3.83681 7.91298 3.74084C7.81714 3.64488 7.76923 3.52597 7.76923 3.38412C7.76923 3.24225 7.81714 3.12356 7.91298 3.02804C8.00881 2.93252 8.12756 2.88477 8.26923 2.88477H15.5C15.6417 2.88477 15.7604 2.93275 15.8562 3.02872C15.9521 3.12468 16 3.24359 16 3.38544C16 3.52731 15.9521 3.646 15.8562 3.74152C15.7604 3.83703 15.6417 3.88479 15.5 3.88479Z" fill="#1C1B1F"/>
</svg>
