<svg width="24" height="24" viewBox="0 0 24 24" fill="none" xmlns="http://www.w3.org/2000/svg">
<mask id="mask0_898_1613" style="mask-type:alpha" maskUnits="userSpaceOnUse" x="0" y="0" width="24" height="24">
<rect width="24" height="24" fill="#D9D9D9"/>
</mask>
<g mask="url(#mask0_898_1613)">
<path d="M9.53937 15.2311C7.94065 15.2311 6.58584 14.6756 5.47494 13.5647C4.36404 12.4538 3.80859 11.099 3.80859 9.50031C3.80859 7.90159 4.36404 6.54678 5.47494 5.43588C6.58584 4.32498 7.94065 3.76953 9.53937 3.76953C11.1381 3.76953 12.4929 4.32498 13.6038 5.43588C14.7147 6.54678 15.2701 7.90159 15.2701 9.50031C15.2701 10.1952 15.1471 10.8676 14.9009 11.5176C14.6548 12.1676 14.3317 12.7234 13.9317 13.1849L19.8394 19.0926C19.933 19.1862 19.983 19.301 19.9894 19.4369C19.9958 19.5727 19.9458 19.6939 19.8394 19.8003C19.733 19.9067 19.615 19.9599 19.4855 19.9599C19.356 19.9599 19.2381 19.9067 19.1317 19.8003L13.224 13.8926C12.724 14.3183 12.149 14.6477 11.499 14.8811C10.849 15.1144 10.1958 15.2311 9.53937 15.2311ZM9.53937 14.2311C10.8663 14.2311 11.9865 13.7743 12.8999 12.8609C13.8134 11.9474 14.2701 10.8272 14.2701 9.50031C14.2701 8.17339 13.8134 7.0532 12.8999 6.13973C11.9865 5.22627 10.8663 4.76953 9.53937 4.76953C8.21245 4.76953 7.09226 5.22627 6.17879 6.13973C5.26534 7.0532 4.80862 8.17339 4.80862 9.50031C4.80862 10.8272 5.26534 11.9474 6.17879 12.8609C7.09226 13.7743 8.21245 14.2311 9.53937 14.2311Z" fill="#1C1B1F"/>
</g>
</svg>
