<svg width="70" height="68" viewBox="0 0 70 68" fill="none" xmlns="http://www.w3.org/2000/svg">
<g clip-path="url(#clip0_1033_2894)">
<path d="M34.9993 0V33.9996L33.0246 31.8771L24.1846 22.3835L34.9993 0Z" fill="url(#paint0_linear_1033_2894)"/>
<path d="M34.9997 33.9996L17.4995 43.3961L0 25.9727L31.3059 33.1509L34.9997 33.9996Z" fill="url(#paint1_linear_1033_2894)"/>
<path d="M34.9999 34V56.3835L13.3691 68.0004L34.9999 34Z" fill="url(#paint2_linear_1033_2894)"/>
<path d="M56.6315 68.0004L35 34L52.5009 43.3965L56.6315 68.0004Z" fill="url(#paint3_linear_1033_2894)"/>
<path d="M70.0003 25.9729L35 33.9999L45.8175 22.3838L70.0003 25.9729Z" fill="url(#paint4_linear_1033_2894)"/>
<path d="M34.9999 34L13.3691 68.0004L17.4998 43.3965L34.9999 34Z" fill="url(#paint5_linear_1033_2894)"/>
<path d="M45.8175 22.3835L35 33.9996V0L45.8175 22.3835Z" fill="url(#paint6_linear_1033_2894)"/>
<path d="M34.9997 33.9999L31.3059 33.1512L0 25.9729L24.1849 22.3838L33.0249 31.8774L34.9997 33.9999Z" fill="url(#paint7_linear_1033_2894)"/>
<path d="M70.0003 25.9727L52.5009 43.3961L35 33.9996L70.0003 25.9727Z" fill="url(#paint8_linear_1033_2894)"/>
<path d="M56.6315 68.0004L35 56.3835V34L56.6315 68.0004Z" fill="url(#paint9_linear_1033_2894)"/>
</g>
<defs>
<linearGradient id="paint0_linear_1033_2894" x1="26.6753" y1="12.3494" x2="36.2545" y2="17.4793" gradientUnits="userSpaceOnUse">
<stop stop-color="#E39C17"/>
<stop offset="1" stop-color="#BD6A0B"/>
</linearGradient>
<linearGradient id="paint1_linear_1033_2894" x1="14.9901" y1="40.3475" x2="17.39" y2="30.8508" gradientUnits="userSpaceOnUse">
<stop stop-color="#E39C17"/>
<stop offset="1" stop-color="#BD6A0B"/>
</linearGradient>
<linearGradient id="paint2_linear_1033_2894" x1="30.5062" y1="56.1654" x2="24.6458" y2="51.5755" gradientUnits="userSpaceOnUse">
<stop stop-color="#E39C17"/>
<stop offset="1" stop-color="#BD6A0B"/>
</linearGradient>
<linearGradient id="paint3_linear_1033_2894" x1="53.5592" y1="47.5057" x2="45.2382" y2="51.1046" gradientUnits="userSpaceOnUse">
<stop stop-color="#E39C17"/>
<stop offset="1" stop-color="#BD6A0B"/>
</linearGradient>
<linearGradient id="paint4_linear_1033_2894" x1="51.7057" y1="22.2311" x2="52.6074" y2="30.6679" gradientUnits="userSpaceOnUse">
<stop stop-color="#E39C17"/>
<stop offset="1" stop-color="#BD6A0B"/>
</linearGradient>
<linearGradient id="paint5_linear_1033_2894" x1="24.3258" y1="51.4749" x2="22.0282" y2="44.0421" gradientUnits="userSpaceOnUse">
<stop stop-color="#F7CC19"/>
<stop offset="1" stop-color="#E39300"/>
</linearGradient>
<linearGradient id="paint6_linear_1033_2894" x1="35.955" y1="17.0582" x2="47.1035" y2="17.7174" gradientUnits="userSpaceOnUse">
<stop stop-color="#F7CC19"/>
<stop offset="1" stop-color="#E39300"/>
</linearGradient>
<linearGradient id="paint7_linear_1033_2894" x1="18.039" y1="28.2707" x2="19.7364" y2="23.0894" gradientUnits="userSpaceOnUse">
<stop stop-color="#F7CC19"/>
<stop offset="1" stop-color="#E39300"/>
</linearGradient>
<linearGradient id="paint8_linear_1033_2894" x1="52.3927" y1="28.0656" x2="53.1948" y2="41.8051" gradientUnits="userSpaceOnUse">
<stop stop-color="#F7CC19"/>
<stop offset="1" stop-color="#E39300"/>
</linearGradient>
<linearGradient id="paint9_linear_1033_2894" x1="44.3774" y1="51.0857" x2="36.1116" y2="51.5559" gradientUnits="userSpaceOnUse">
<stop stop-color="#F7CC19"/>
<stop offset="1" stop-color="#E39300"/>
</linearGradient>
<clipPath id="clip0_1033_2894">
<rect width="70" height="68" fill="white"/>
</clipPath>
</defs>
</svg>
