<svg width="183" height="195" viewBox="0 0 183 195" fill="none" xmlns="http://www.w3.org/2000/svg">
<rect x="29.0479" y="29.0479" width="136.524" height="136.524" rx="68.2619" fill="#00D970"/>
<rect x="11.6191" y="17.4287" width="23.2381" height="23.2381" rx="11.619" fill="#00D970"/>
<rect y="139.429" width="34.8571" height="34.8571" rx="17.4286" fill="#00D970"/>
<rect x="148.143" width="34.8571" height="34.8571" rx="17.4286" fill="#00D970"/>
<rect x="148.143" y="162.666" width="31.9524" height="31.9524" rx="15.9762" fill="#00D970"/>
<rect x="92.9521" y="174.285" width="11.619" height="11.619" rx="5.80952" fill="#00D970"/>
<mask id="mask0_1044_3020" style="mask-type:alpha" maskUnits="userSpaceOnUse" x="40" y="40" width="115" height="115">
<rect x="40.4258" y="40.4258" width="113.77" height="113.77" fill="#D9D9D9"/>
</mask>
<g mask="url(#mask0_1044_3020)">
<path d="M85.6952 112.242L125.87 72.0667C126.818 71.1186 127.944 70.6445 129.248 70.6445C130.551 70.6445 131.677 71.1186 132.625 72.0667C133.573 73.0147 134.047 74.1406 134.047 75.4442C134.047 76.7478 133.573 77.8737 132.625 78.8217L89.0135 122.434C88.0654 123.382 86.9593 123.856 85.6952 123.856C84.4311 123.856 83.325 123.382 82.3769 122.434L61.9932 102.05C61.0451 101.102 60.5908 99.9758 60.6303 98.6722C60.6698 97.3686 61.1636 96.2427 62.1117 95.2947C63.0598 94.3466 64.1856 93.8725 65.4892 93.8725C66.7928 93.8725 67.9187 94.3466 68.8668 95.2947L85.6952 112.242Z" fill="white"/>
</g>
</svg>
