<svg width="63" height="67" viewBox="0 0 63 67" fill="none" xmlns="http://www.w3.org/2000/svg">
<rect x="10" y="10" width="47" height="47" rx="23.5" fill="#00D970"/>
<rect x="4" y="6" width="8" height="8" rx="4" fill="#00D970"/>
<rect y="48" width="12" height="12" rx="6" fill="#00D970"/>
<rect x="51" width="12" height="12" rx="6" fill="#00D970"/>
<rect x="51" y="56" width="11" height="11" rx="5.5" fill="#00D970"/>
<rect x="32" y="60" width="4" height="4" rx="2" fill="#00D970"/>
<mask id="mask0_1044_2812" style="mask-type:alpha" maskUnits="userSpaceOnUse" x="13" y="13" width="41" height="41">
<rect x="13.917" y="13.917" width="39.1667" height="39.1667" fill="#D9D9D9"/>
</mask>
<g mask="url(#mask0_1044_2812)">
<path d="M29.5018 38.6406L43.3325 24.8099C43.6589 24.4835 44.0465 24.3203 44.4953 24.3203C44.9441 24.3203 45.3317 24.4835 45.658 24.8099C45.9844 25.1363 46.1476 25.5239 46.1476 25.9727C46.1476 26.4214 45.9844 26.809 45.658 27.1354L30.6442 42.1493C30.3178 42.4757 29.937 42.6389 29.5018 42.6389C29.0666 42.6389 28.6858 42.4757 28.3594 42.1493L21.3421 35.1319C21.0157 34.8056 20.8593 34.418 20.8729 33.9692C20.8865 33.5204 21.0565 33.1328 21.3829 32.8064C21.7093 32.48 22.0968 32.3168 22.5456 32.3168C22.9944 32.3168 23.382 32.48 23.7084 32.8064L29.5018 38.6406Z" fill="white"/>
</g>
</svg>
