<svg width="21" height="25" viewBox="0 0 21 25" fill="none" xmlns="http://www.w3.org/2000/svg">
<g clip-path="url(#clip0_1046_3344)">
<path d="M11.0961 3.31641H9.31836V9.5069H11.0961V3.31641Z" fill="url(#paint0_linear_1046_3344)"/>
<path d="M9.31836 6.23517L11.0961 5.51183V4.02832L9.31836 4.75166V6.23517Z" fill="url(#paint1_linear_1046_3344)"/>
<path d="M9.31836 8.71173L11.0961 7.98839V6.50488L9.31836 7.22822V8.71173Z" fill="url(#paint2_linear_1046_3344)"/>
<path d="M9.96674 2.95781C9.96674 2.95781 9.35422 2.75133 9.69495 1.78863C10.0357 0.825925 10.1033 0.27487 10.1033 0C10.3751 0.344574 11.4753 3.27082 9.96674 2.95781Z" fill="url(#paint3_radial_1046_3344)"/>
<path d="M10.0721 2.80007C10.0721 2.80007 9.78208 2.70274 9.94334 2.24638C10.1046 1.79002 10.1371 1.52962 10.1371 1.39941C10.2659 1.56249 10.7873 2.94868 10.0721 2.80138V2.80007Z" fill="#E2A247"/>
<path d="M18.1905 9.87207H2.76693C2.47692 9.87207 2.24023 10.1114 2.24023 10.4047V16.1822C2.24023 16.4755 2.47692 16.7149 2.76693 16.7149H18.1905C18.5156 16.7149 18.7822 16.4453 18.7822 16.1165V10.4705C18.7822 10.1417 18.5156 9.87207 18.1905 9.87207Z" fill="url(#paint4_radial_1046_3344)"/>
<path d="M10.4405 9.17871H17.4331C17.4331 9.17871 18.7388 9.25368 19.2005 10.5965C19.6621 11.9392 18.5853 12.7612 17.74 12.3128C16.8947 11.8643 16.3563 10.2966 14.8205 11.3422C13.2833 12.3877 12.5147 12.2378 11.5927 11.4921C10.6707 10.7451 10.0698 10.7451 9.14782 11.4921C8.22578 12.2391 7.4572 12.3877 5.92005 11.3422C4.38289 10.2966 3.8458 11.8643 3.00049 12.3128C2.15519 12.7612 1.0797 11.9392 1.54006 10.5965C2.00043 9.25368 3.3074 9.17871 3.3074 9.17871H10.4392H10.4405Z" fill="url(#paint5_radial_1046_3344)"/>
<path d="M1.54097 10.5974C1.52797 10.6356 1.51626 10.6724 1.50586 10.7092C1.73214 11.1038 2.42009 11.2813 3.0001 11.0933C3.84541 10.8197 4.3838 9.86226 5.91966 10.5014C7.45551 11.1406 8.22539 11.0485 9.14742 10.5922C10.0695 10.1358 10.6703 10.1358 11.5923 10.5922C12.5143 11.0485 13.2829 11.1393 14.8201 10.5014C16.3572 9.86357 16.8943 10.821 17.7396 11.0933C18.3196 11.2813 19.0089 11.1038 19.2339 10.7092C19.2235 10.6724 19.2118 10.6356 19.1988 10.5974C18.7371 9.25334 17.4314 9.17969 17.4314 9.17969H3.30831C3.30831 9.17969 2.00264 9.25465 1.54097 10.5974Z" fill="url(#paint6_radial_1046_3344)"/>
<path d="M18.7816 13.5577C18.2328 13.8996 17.3602 14.0588 16.2652 14.2179C14.715 14.4415 14.8633 13.6208 12.7955 13.2473C10.7291 12.8738 10.876 14.5164 8.66131 13.9194C6.4466 13.3223 6.1514 13.3972 3.9367 13.9943C3.16942 14.2008 2.62452 14.1929 2.23828 14.0943V14.9149C2.62452 15.0136 3.16942 15.0228 3.9367 14.815C6.1514 14.2179 6.4466 14.1429 8.66131 14.74C10.876 15.3371 10.7278 13.6945 12.7955 14.068C14.8619 14.4415 14.715 15.2621 16.2652 15.0386C17.3602 14.8807 18.2328 14.7216 18.7816 14.3784V13.5577Z" fill="url(#paint7_radial_1046_3344)"/>
<path d="M18.7816 14.9571C18.2328 15.299 17.3602 15.4582 16.2652 15.6173C14.715 15.8409 14.8633 15.0202 12.7955 14.6467C10.7291 14.2732 10.876 15.9159 8.66131 15.3188C6.4466 14.7217 6.1514 14.7967 3.9367 15.3937C3.16942 15.6002 2.62452 15.5923 2.23828 15.4937V15.7541C2.62452 15.8527 3.16942 15.8619 3.9367 15.6541C6.1514 15.0571 6.4466 14.9821 8.66131 15.5792C10.876 16.1763 10.7278 14.5336 12.7955 14.9071C14.8619 15.2806 14.715 16.1013 16.2652 15.8777C17.3602 15.7199 18.2328 15.5608 18.7816 15.2175V14.9571Z" fill="url(#paint8_radial_1046_3344)"/>
<path d="M18.7816 12.8858C18.2328 13.2278 17.3602 13.3869 16.2652 13.546C14.715 13.7696 14.8633 12.9489 12.7955 12.5754C10.7291 12.2019 10.876 13.8446 8.66131 13.2475C6.4466 12.6504 6.1514 12.7254 3.9367 13.3224C3.16942 13.5289 2.62452 13.521 2.23828 13.4224V13.6828C2.62452 13.7814 3.16942 13.7906 3.9367 13.5828C6.1514 12.9858 6.4466 12.9108 8.66131 13.5079C10.876 14.105 10.7278 12.4623 12.7955 12.8358C14.8619 13.2093 14.715 14.03 16.2652 13.8064C17.3602 13.6486 18.2328 13.4895 18.7816 13.1462V12.8858Z" fill="url(#paint9_radial_1046_3344)"/>
<path d="M19.6858 16.9629H1.5702C1.22947 16.9629 0.951172 17.2443 0.951172 17.5889V24.3752C0.951172 24.7197 1.22947 25.0012 1.5702 25.0012H19.6858C20.0681 25.0012 20.3802 24.6855 20.3802 24.2989V17.6678C20.3802 17.2812 20.0681 16.9655 19.6858 16.9655V16.9629Z" fill="url(#paint10_radial_1046_3344)"/>
<path d="M10.5822 16.1494H18.7947C18.7947 16.1494 20.3293 16.2375 20.8703 17.8157C21.4112 19.3939 20.1485 20.3579 19.1549 19.8319C18.1627 19.3058 17.5306 17.4646 15.7256 18.6916C13.9205 19.9187 13.018 19.7438 11.9347 18.8665C10.8514 17.9893 10.1466 17.9893 9.06328 18.8665C7.97999 19.7438 7.07746 19.9187 5.27241 18.6916C3.46735 17.4646 2.83532 19.3058 1.84306 19.8319C0.850805 20.3579 -0.413252 19.3939 0.127743 17.8157C0.668739 16.2375 2.20329 16.1494 2.20329 16.1494H10.5796H10.5822Z" fill="url(#paint11_radial_1046_3344)"/>
<path d="M0.130158 17.8157C0.114553 17.8604 0.101548 17.9038 0.0898438 17.9459C0.35514 18.4102 1.16403 18.618 1.84548 18.397C2.83774 18.0761 3.46977 16.9517 5.27482 17.7013C7.07987 18.451 7.9824 18.3431 9.06569 17.8078C10.149 17.2726 10.8538 17.2726 11.9371 17.8078C13.0204 18.3431 13.923 18.4496 15.728 17.7013C17.5331 16.9517 18.1651 18.0761 19.1573 18.397C19.8388 18.618 20.6477 18.4089 20.913 17.9459C20.9013 17.9025 20.887 17.8591 20.8727 17.8157C20.3317 16.2375 18.7971 16.1494 18.7971 16.1494H2.20571C2.20571 16.1494 0.671154 16.2375 0.130158 17.8157Z" fill="url(#paint12_radial_1046_3344)"/>
<path d="M20.3802 21.2924C19.7352 21.6949 18.7104 21.8816 17.4242 22.0671C15.6036 22.3301 15.7765 21.3661 13.3499 20.9268C10.9219 20.4889 11.0961 22.4169 8.4952 21.7159C5.89426 21.0149 5.54704 21.1017 2.94609 21.804C2.04487 22.0473 1.40504 22.0368 0.951172 21.9211V22.8851C1.40374 23.0008 2.04487 23.0114 2.94609 22.768C5.54704 22.0671 5.89426 21.9789 8.4952 22.6799C11.0961 23.3809 10.9232 21.4529 13.3499 21.8908C15.7778 22.3288 15.6036 23.2941 17.4242 23.0311C18.7104 22.8456 19.7352 22.6589 20.3802 22.2564V21.2924Z" fill="url(#paint13_radial_1046_3344)"/>
<path d="M20.3802 22.937C19.7352 23.3394 18.7104 23.5262 17.4242 23.7116C15.6036 23.9746 15.7765 23.0106 13.3499 22.5713C10.9219 22.1334 11.0961 24.0614 8.4952 23.3604C5.89426 22.6595 5.54704 22.7463 2.94609 23.4486C2.04487 23.6919 1.40504 23.6813 0.951172 23.5656V23.872C1.40374 23.9878 2.04487 23.9983 2.94609 23.755C5.54704 23.054 5.89426 22.9659 8.4952 23.6669C11.0961 24.3679 10.9232 22.4398 13.3499 22.8778C15.7778 23.3157 15.6036 24.2811 17.4242 24.018C18.7104 23.8326 19.7352 23.6458 20.3802 23.2434V22.937Z" fill="url(#paint14_radial_1046_3344)"/>
<path d="M20.3802 20.5034C19.7352 20.9058 18.7104 21.0926 17.4242 21.278C15.6036 21.541 15.7765 20.577 13.3499 20.1378C10.9219 19.6998 11.0961 21.6278 8.4952 20.9269C5.89426 20.2259 5.54704 20.3127 2.94609 21.015C2.04487 21.2583 1.40504 21.2478 0.951172 21.132V21.4385C1.40374 21.5542 2.04487 21.5647 2.94609 21.3214C5.54704 20.6204 5.89426 20.5323 8.4952 21.2333C11.0961 21.9343 10.9232 20.0062 13.3499 20.4442C15.7778 20.8821 15.6036 21.8475 17.4242 21.5844C18.7104 21.399 19.7352 21.2122 20.3802 20.8098V20.5034Z" fill="url(#paint15_radial_1046_3344)"/>
</g>
<defs>
<linearGradient id="paint0_linear_1046_3344" x1="9.31836" y1="6.41099" x2="11.0961" y2="6.41099" gradientUnits="userSpaceOnUse">
<stop stop-color="#AEAEAE"/>
<stop offset="0.55" stop-color="#FFE5EA"/>
<stop offset="1" stop-color="#AEAEAE"/>
</linearGradient>
<linearGradient id="paint1_linear_1046_3344" x1="9.22082" y1="5.13175" x2="11.1182" y2="5.13175" gradientUnits="userSpaceOnUse">
<stop stop-color="#0C80C3"/>
<stop offset="0.15" stop-color="#1D8FCD"/>
<stop offset="0.43" stop-color="#39A9DF"/>
<stop offset="0.59" stop-color="#44B3E6"/>
<stop offset="0.68" stop-color="#3CACE1"/>
<stop offset="0.82" stop-color="#2899D4"/>
<stop offset="0.98" stop-color="#077BC0"/>
<stop offset="1" stop-color="#0277BD"/>
</linearGradient>
<linearGradient id="paint2_linear_1046_3344" x1="9.31836" y1="7.60831" x2="11.0961" y2="7.60831" gradientUnits="userSpaceOnUse">
<stop stop-color="#0C80C3"/>
<stop offset="0.15" stop-color="#1D8FCD"/>
<stop offset="0.43" stop-color="#39A9DF"/>
<stop offset="0.59" stop-color="#44B3E6"/>
<stop offset="0.68" stop-color="#3CACE1"/>
<stop offset="0.82" stop-color="#2899D4"/>
<stop offset="0.98" stop-color="#077BC0"/>
<stop offset="1" stop-color="#0277BD"/>
</linearGradient>
<radialGradient id="paint3_radial_1046_3344" cx="0" cy="0" r="1" gradientUnits="userSpaceOnUse" gradientTransform="translate(10.1683 0.963281) scale(1.11971 1.90236)">
<stop stop-color="#F09021"/>
<stop offset="0.19" stop-color="#EF8B21"/>
<stop offset="0.41" stop-color="#ED7E22"/>
<stop offset="0.64" stop-color="#EA6725"/>
<stop offset="0.87" stop-color="#E64828"/>
<stop offset="1" stop-color="#E4342B"/>
</radialGradient>
<radialGradient id="paint4_radial_1046_3344" cx="0" cy="0" r="1" gradientUnits="userSpaceOnUse" gradientTransform="translate(10.5112 13.2443) scale(9.669 4.30244)">
<stop stop-color="#A55239"/>
<stop offset="0.22" stop-color="#924732"/>
<stop offset="0.66" stop-color="#622C1F"/>
<stop offset="0.99" stop-color="#3A1611"/>
</radialGradient>
<radialGradient id="paint5_radial_1046_3344" cx="0" cy="0" r="1" gradientUnits="userSpaceOnUse" gradientTransform="translate(10.6092 7.02452) rotate(-180) scale(11.7951 5.50539)">
<stop stop-color="#FFD89B"/>
<stop offset="0.7" stop-color="#FF724E"/>
<stop offset="1" stop-color="#FF3F45"/>
</radialGradient>
<radialGradient id="paint6_radial_1046_3344" cx="0" cy="0" r="1" gradientUnits="userSpaceOnUse" gradientTransform="translate(10.0773 8.54962) scale(10.6222 5.15629)">
<stop stop-color="#FFD89B"/>
<stop offset="0.7" stop-color="#FF724E"/>
<stop offset="1" stop-color="#FF3F45"/>
</radialGradient>
<radialGradient id="paint7_radial_1046_3344" cx="0" cy="0" r="1" gradientUnits="userSpaceOnUse" gradientTransform="translate(10.5106 14.082) scale(9.00576 4.00731)">
<stop stop-color="#FF9989"/>
<stop offset="1" stop-color="#88391E"/>
</radialGradient>
<radialGradient id="paint8_radial_1046_3344" cx="0" cy="0" r="1" gradientUnits="userSpaceOnUse" gradientTransform="translate(0.0651949 15.1979) scale(8.97715 3.99458)">
<stop stop-color="#FF9989"/>
<stop offset="1" stop-color="#88391E"/>
</radialGradient>
<radialGradient id="paint9_radial_1046_3344" cx="0" cy="0" r="1" gradientUnits="userSpaceOnUse" gradientTransform="translate(0.0651949 13.1345) scale(8.97715 3.99458)">
<stop stop-color="#FF9989"/>
<stop offset="1" stop-color="#88391E"/>
</radialGradient>
<radialGradient id="paint10_radial_1046_3344" cx="0" cy="0" r="1" gradientUnits="userSpaceOnUse" gradientTransform="translate(10.6657 20.9049) scale(11.357 5.05355)">
<stop stop-color="#A55239"/>
<stop offset="0.22" stop-color="#924732"/>
<stop offset="0.66" stop-color="#622C1F"/>
<stop offset="0.99" stop-color="#3A1611"/>
</radialGradient>
<radialGradient id="paint11_radial_1046_3344" cx="0" cy="0" r="1" gradientUnits="userSpaceOnUse" gradientTransform="translate(10.7783 13.6379) rotate(180) scale(13.8535 6.4662)">
<stop stop-color="#FFD89B"/>
<stop offset="0.7" stop-color="#FF724E"/>
<stop offset="1" stop-color="#FF3F45"/>
</radialGradient>
<radialGradient id="paint12_radial_1046_3344" cx="0" cy="0" r="1" gradientUnits="userSpaceOnUse" gradientTransform="translate(10.1555 15.4302) scale(12.4754 6.05587)">
<stop stop-color="#FFD89B"/>
<stop offset="0.7" stop-color="#FF724E"/>
<stop offset="1" stop-color="#FF3F45"/>
</radialGradient>
<radialGradient id="paint13_radial_1046_3344" cx="0" cy="0" r="1" gradientUnits="userSpaceOnUse" gradientTransform="translate(10.6657 21.8892) scale(10.578 4.70693)">
<stop stop-color="#FF9989"/>
<stop offset="1" stop-color="#88391E"/>
</radialGradient>
<radialGradient id="paint14_radial_1046_3344" cx="0" cy="0" r="1" gradientUnits="userSpaceOnUse" gradientTransform="translate(10.6657 23.1997) scale(10.5442 4.69188)">
<stop stop-color="#FF9989"/>
<stop offset="1" stop-color="#88391E"/>
</radialGradient>
<radialGradient id="paint15_radial_1046_3344" cx="0" cy="0" r="1" gradientUnits="userSpaceOnUse" gradientTransform="translate(10.6657 20.7753) scale(10.5442 4.69188)">
<stop stop-color="#FF9989"/>
<stop offset="1" stop-color="#88391E"/>
</radialGradient>
<clipPath id="clip0_1046_3344">
<rect width="21" height="25" fill="white"/>
</clipPath>
</defs>
</svg>
