<svg width="24" height="24" viewBox="0 0 24 24" fill="none" xmlns="http://www.w3.org/2000/svg">
<mask id="mask0_891_1665" style="mask-type:alpha" maskUnits="userSpaceOnUse" x="0" y="0" width="24" height="24">
<rect width="24" height="24" fill="#D9D9D9"/>
</mask>
<g mask="url(#mask0_891_1665)">
<path d="M17.5 19.1156C16.8026 19.1156 16.2115 18.8733 15.7269 18.3886C15.2423 17.904 15 17.313 15 16.6155C15 15.9181 15.2423 15.3271 15.7269 14.8425C16.2115 14.3579 16.8026 14.1155 17.5 14.1155C18.1974 14.1155 18.7885 14.3579 19.2731 14.8425C19.7577 15.3271 20 15.9181 20 16.6155C20 17.313 19.7577 17.904 19.2731 18.3886C18.7885 18.8733 18.1974 19.1156 17.5 19.1156ZM17.5 18.1155C17.9167 18.1155 18.2708 17.9697 18.5625 17.678C18.8542 17.3864 19 17.0322 19 16.6155C19 16.1989 18.8542 15.8447 18.5625 15.553C18.2708 15.2614 17.9167 15.1155 17.5 15.1155C17.0833 15.1155 16.7292 15.2614 16.4375 15.553C16.1458 15.8447 16 16.1989 16 16.6155C16 17.0322 16.1458 17.3864 16.4375 17.678C16.7292 17.9697 17.0833 18.1155 17.5 18.1155ZM11.7308 17.1156H4.5C4.35833 17.1156 4.23958 17.0676 4.14375 16.9716C4.04792 16.8757 4 16.7567 4 16.6149C4 16.473 4.04792 16.3543 4.14375 16.2588C4.23958 16.1633 4.35833 16.1155 4.5 16.1155H11.7308C11.8724 16.1155 11.9912 16.1635 12.087 16.2595C12.1829 16.3555 12.2308 16.4744 12.2308 16.6162C12.2308 16.7581 12.1829 16.8768 12.087 16.9723C11.9912 17.0678 11.8724 17.1156 11.7308 17.1156ZM6.5 9.88479C5.80257 9.88479 5.21154 9.64248 4.72692 9.15787C4.24231 8.67325 4 8.08222 4 7.38479C4 6.68734 4.24231 6.09631 4.72692 5.61169C5.21154 5.12707 5.80257 4.88477 6.5 4.88477C7.19743 4.88477 7.78846 5.12707 8.27308 5.61169C8.75769 6.09631 9 6.68734 9 7.38479C9 8.08222 8.75769 8.67325 8.27308 9.15787C7.78846 9.64248 7.19743 9.88479 6.5 9.88479ZM6.5 8.88479C6.91667 8.88479 7.27083 8.73896 7.5625 8.44729C7.85417 8.15562 8 7.80146 8 7.38479C8 6.96812 7.85417 6.61396 7.5625 6.32229C7.27083 6.03062 6.91667 5.88479 6.5 5.88479C6.08333 5.88479 5.72917 6.03062 5.4375 6.32229C5.14583 6.61396 5 6.96812 5 7.38479C5 7.80146 5.14583 8.15562 5.4375 8.44729C5.72917 8.73896 6.08333 8.88479 6.5 8.88479ZM19.5 7.88479H12.2692C12.1276 7.88479 12.0088 7.83681 11.913 7.74084C11.8171 7.64488 11.7692 7.52597 11.7692 7.38412C11.7692 7.24225 11.8171 7.12356 11.913 7.02804C12.0088 6.93252 12.1276 6.88477 12.2692 6.88477H19.5C19.6417 6.88477 19.7604 6.93275 19.8562 7.02872C19.9521 7.12468 20 7.24359 20 7.38544C20 7.52731 19.9521 7.646 19.8562 7.74152C19.7604 7.83703 19.6417 7.88479 19.5 7.88479Z" fill="#1C1B1F"/>
</g>
</svg>
