<svg width="24" height="24" viewBox="0 0 24 24" fill="none" xmlns="http://www.w3.org/2000/svg">
<mask id="mask0_891_2562" style="mask-type:alpha" maskUnits="userSpaceOnUse" x="0" y="0" width="24" height="24">
<rect width="24" height="24" fill="#D9D9D9"/>
</mask>
<g mask="url(#mask0_891_2562)">
<path d="M12.0502 19.5C9.95788 19.5 8.17647 18.7699 6.70597 17.3096C5.23545 15.8494 4.50019 14.0795 4.50019 12V10.6135L2.75404 12.3596C2.66046 12.4532 2.54571 12.5032 2.40979 12.5096C2.27391 12.516 2.15276 12.466 2.04634 12.3596C1.93993 12.2532 1.88672 12.1353 1.88672 12.0058C1.88672 11.8763 1.93993 11.7583 2.04634 11.6519L4.43482 9.26345C4.59635 9.10192 4.78481 9.02115 5.00019 9.02115C5.21558 9.02115 5.40404 9.10192 5.56557 9.26345L7.95404 11.6519C8.04763 11.7455 8.09763 11.8603 8.10404 11.9962C8.11046 12.1321 8.06046 12.2532 7.95404 12.3596C7.84763 12.466 7.72968 12.5192 7.60019 12.5192C7.47071 12.5192 7.35276 12.466 7.24634 12.3596L5.50019 10.6135V12C5.50019 13.8077 6.13577 15.3429 7.40692 16.6058C8.67809 17.8686 10.2258 18.5 12.0502 18.5C12.3681 18.5 12.6883 18.4769 13.0108 18.4308C13.3332 18.3846 13.6515 18.307 13.9656 18.1981C14.1079 18.1532 14.2431 18.1583 14.3713 18.2134C14.4996 18.2686 14.5919 18.357 14.6483 18.4789C14.7047 18.6045 14.7044 18.7324 14.6473 18.8625C14.5903 18.9926 14.4906 19.0801 14.3483 19.125C13.9778 19.2583 13.5989 19.3542 13.2117 19.4125C12.8246 19.4708 12.4374 19.5 12.0502 19.5ZM11.9502 5.5C11.6322 5.5 11.3121 5.52307 10.9896 5.56922C10.6672 5.61539 10.3489 5.69296 10.0348 5.80193C9.8925 5.84679 9.75628 5.84167 9.62614 5.78655C9.49603 5.73142 9.40276 5.64295 9.34634 5.52115C9.28993 5.39935 9.28704 5.27339 9.33769 5.14328C9.38833 5.01314 9.48288 4.92564 9.62134 4.88078C9.99571 4.74744 10.3797 4.65064 10.7733 4.59037C11.1669 4.53012 11.5592 4.5 11.9502 4.5C14.0425 4.5 15.8239 5.23012 17.2944 6.69037C18.7649 8.15064 19.5002 9.92052 19.5002 12V13.3865L21.2463 11.6404C21.3399 11.5468 21.4547 11.4968 21.5906 11.4904C21.7265 11.484 21.8476 11.534 21.954 11.6404C22.0605 11.7468 22.1137 11.8647 22.1137 11.9942C22.1137 12.1237 22.0605 12.2417 21.954 12.3481L19.5656 14.7366C19.404 14.8981 19.2156 14.9789 19.0002 14.9789C18.7848 14.9789 18.5964 14.8981 18.4348 14.7366L16.0463 12.3481C15.9528 12.2545 15.9028 12.1398 15.8963 12.0038C15.8899 11.8679 15.9399 11.7468 16.0463 11.6404C16.1528 11.534 16.2707 11.4808 16.4002 11.4808C16.5297 11.4808 16.6476 11.534 16.754 11.6404L18.5002 13.3865V12C18.5002 10.1923 17.8646 8.65706 16.5935 7.39422C15.3223 6.13141 13.7745 5.5 11.9502 5.5Z" fill="#1C1B1F"/>
</g>
</svg>
