<svg width="55" height="55" viewBox="0 0 55 55" fill="none" xmlns="http://www.w3.org/2000/svg">
<rect width="55" height="55" rx="27.5" fill="#F4F4F4"/>
<mask id="mask0_1158_4520" style="mask-type:alpha" maskUnits="userSpaceOnUse" x="15" y="16" width="24" height="24">
<rect x="15" y="16" width="24" height="24" fill="#D9D9D9"/>
</mask>
<g mask="url(#mask0_1158_4520)">
<path d="M33 38C32.1667 38 31.4583 37.7083 30.875 37.125C30.2917 36.5417 30 35.8333 30 35C30 34.8833 30.0083 34.7625 30.025 34.6375C30.0417 34.5125 30.0667 34.4 30.1 34.3L23.05 30.2C22.7667 30.45 22.45 30.6458 22.1 30.7875C21.75 30.9292 21.3833 31 21 31C20.1667 31 19.4583 30.7083 18.875 30.125C18.2917 29.5417 18 28.8333 18 28C18 27.1667 18.2917 26.4583 18.875 25.875C19.4583 25.2917 20.1667 25 21 25C21.3833 25 21.75 25.0708 22.1 25.2125C22.45 25.3542 22.7667 25.55 23.05 25.8L30.1 21.7C30.0667 21.6 30.0417 21.4875 30.025 21.3625C30.0083 21.2375 30 21.1167 30 21C30 20.1667 30.2917 19.4583 30.875 18.875C31.4583 18.2917 32.1667 18 33 18C33.8333 18 34.5417 18.2917 35.125 18.875C35.7083 19.4583 36 20.1667 36 21C36 21.8333 35.7083 22.5417 35.125 23.125C34.5417 23.7083 33.8333 24 33 24C32.6167 24 32.25 23.9292 31.9 23.7875C31.55 23.6458 31.2333 23.45 30.95 23.2L23.9 27.3C23.9333 27.4 23.9583 27.5125 23.975 27.6375C23.9917 27.7625 24 27.8833 24 28C24 28.1167 23.9917 28.2375 23.975 28.3625C23.9583 28.4875 23.9333 28.6 23.9 28.7L30.95 32.8C31.2333 32.55 31.55 32.3542 31.9 32.2125C32.25 32.0708 32.6167 32 33 32C33.8333 32 34.5417 32.2917 35.125 32.875C35.7083 33.4583 36 34.1667 36 35C36 35.8333 35.7083 36.5417 35.125 37.125C34.5417 37.7083 33.8333 38 33 38ZM33 22C33.2833 22 33.5208 21.9042 33.7125 21.7125C33.9042 21.5208 34 21.2833 34 21C34 20.7167 33.9042 20.4792 33.7125 20.2875C33.5208 20.0958 33.2833 20 33 20C32.7167 20 32.4792 20.0958 32.2875 20.2875C32.0958 20.4792 32 20.7167 32 21C32 21.2833 32.0958 21.5208 32.2875 21.7125C32.4792 21.9042 32.7167 22 33 22ZM21 29C21.2833 29 21.5208 28.9042 21.7125 28.7125C21.9042 28.5208 22 28.2833 22 28C22 27.7167 21.9042 27.4792 21.7125 27.2875C21.5208 27.0958 21.2833 27 21 27C20.7167 27 20.4792 27.0958 20.2875 27.2875C20.0958 27.4792 20 27.7167 20 28C20 28.2833 20.0958 28.5208 20.2875 28.7125C20.4792 28.9042 20.7167 29 21 29ZM33 36C33.2833 36 33.5208 35.9042 33.7125 35.7125C33.9042 35.5208 34 35.2833 34 35C34 34.7167 33.9042 34.4792 33.7125 34.2875C33.5208 34.0958 33.2833 34 33 34C32.7167 34 32.4792 34.0958 32.2875 34.2875C32.0958 34.4792 32 34.7167 32 35C32 35.2833 32.0958 35.5208 32.2875 35.7125C32.4792 35.9042 32.7167 36 33 36Z" fill="#1C1B1F" fill-opacity="0.8"/>
</g>
</svg>
