<svg width="30" height="30" viewBox="0 0 30 30" fill="none" xmlns="http://www.w3.org/2000/svg">
<mask id="mask0_1387_970" style="mask-type:alpha" maskUnits="userSpaceOnUse" x="0" y="0" width="30" height="30">
<rect width="30" height="30" fill="#D9D9D9"/>
</mask>
<g mask="url(#mask0_1387_970)">
<path d="M8.75 22.5C8.39583 22.5 8.09896 22.3802 7.85938 22.1406C7.61979 21.901 7.5 21.6042 7.5 21.25V18.75H23.75V7.5H26.25C26.6042 7.5 26.901 7.61979 27.1406 7.85938C27.3802 8.09896 27.5 8.39583 27.5 8.75V24.4688C27.5 25.0313 27.2448 25.4219 26.7344 25.6406C26.224 25.8594 25.7708 25.7708 25.375 25.375L22.5 22.5H8.75ZM7.5 16.25L4.625 19.125C4.22917 19.5208 3.77604 19.6094 3.26562 19.3906C2.75521 19.1719 2.5 18.7812 2.5 18.2188V3.75C2.5 3.39583 2.61979 3.09896 2.85938 2.85938C3.09896 2.61979 3.39583 2.5 3.75 2.5H20C20.3542 2.5 20.651 2.61979 20.8906 2.85938C21.1302 3.09896 21.25 3.39583 21.25 3.75V15C21.25 15.3542 21.1302 15.651 20.8906 15.8906C20.651 16.1302 20.3542 16.25 20 16.25H7.5ZM18.75 13.75V5H5V13.75H18.75Z" fill="#1C1B1F"/>
</g>
</svg>
