<svg width="14" height="14" viewBox="0 0 14 14" fill="none" xmlns="http://www.w3.org/2000/svg">
<mask id="mask0_1387_977" style="mask-type:alpha" maskUnits="userSpaceOnUse" x="0" y="0" width="14" height="14">
<rect width="14" height="14" fill="#D9D9D9"/>
</mask>
<g mask="url(#mask0_1387_977)">
<path d="M7.00065 12.25C6.67982 12.25 6.40516 12.1358 6.17669 11.9073C5.94822 11.6788 5.83398 11.4042 5.83398 11.0833C5.83398 10.7625 5.94822 10.4878 6.17669 10.2594C6.40516 10.0309 6.67982 9.91667 7.00065 9.91667C7.32148 9.91667 7.59614 10.0309 7.82461 10.2594C8.05308 10.4878 8.16732 10.7625 8.16732 11.0833C8.16732 11.4042 8.05308 11.6788 7.82461 11.9073C7.59614 12.1358 7.32148 12.25 7.00065 12.25ZM5.83398 8.75V1.75H8.16732V8.75H5.83398Z" fill="#1C1B1F"/>
</g>
</svg>
